<svg xlmns="http://www.w3.org/2000/svg"> 

<symbol xmlns="http://www.w3.org/2000/svg" id="google-color-icon" viewBox="0 0 32 32">
    <path fill="#4285f4" d="M31.68 16.364c0-1.134-.102-2.226-.291-3.273H16.32v6.189h8.611c-.371 2-1.498 3.695-3.193 4.829v4.015h5.171c3.025-2.785 4.771-6.887 4.771-11.76z"/>
    <path fill="#34a853" d="M16.32 32c4.32 0 7.942-1.433 10.589-3.876l-5.171-4.015c-1.433.96-3.265 1.527-5.418 1.527-4.167 0-7.695-2.815-8.953-6.596H2.022v4.145C4.655 28.414 10.066 32 16.32 32z"/>
    <path fill="#fbbc05" d="M7.367 19.04c-.32-.96-.502-1.985-.502-3.04s.182-2.08.502-3.04V8.815H2.022C.938 10.975.32 13.419.32 16s.618 5.025 1.702 7.185l5.345-4.145z"/>
    <path fill="#ea4335" d="M16.32 6.364c2.349 0 4.458.807 6.116 2.393l4.589-4.589C24.254 1.586 20.632.001 16.32.001c-6.255 0-11.665 3.585-14.298 8.815l5.345 4.145c1.258-3.782 4.785-6.596 8.953-6.596z"/>
  </symbol>

</svg>